<svg id="Layer_1" data-name="Layer 1" xmlns="http://www.w3.org/2000/svg" viewBox="0 0 2397 704"><defs><style>.cls-1,.cls-9{fill:#11fe48;}.cls-2,.cls-3{fill:none;}.cls-2,.cls-3,.cls-9{stroke:#11fe48;stroke-miterlimit:10;}.cls-2{stroke-width:30px;}.cls-3,.cls-9{stroke-width:6px;}.cls-4{font-size:300px;fill:#fff;font-family:MyriadPro-Regular, Myriad Pro;}.cls-5{letter-spacing:-0.00999em;}.cls-6{letter-spacing:-0.04999em;}.cls-7{letter-spacing:-0.00699em;}.cls-8{font-size:121px;}</style></defs><path class="cls-1" d="M117,622.91489,195.25531,662H221a23.99979,23.99979,0,0,0,24-24V398a23.99979,23.99979,0,0,0-24-24H141a23.99981,23.99981,0,0,0-24,24V612.883M193.883,662h1.37234M181,622a24,24,0,1,1,24-24A23.99978,23.99978,0,0,1,181,622Zm341.97129,37.13751C503.99353,661.91608,483.1228,662,463.839,662l-2.845-.001c-48.287-.017-87.806-17.598-119.56-31.725-15.957-7.099-36.821-15.887-52.651-16.178A12.00343,12.00343,0,0,1,277,602.098V388.328a11.98659,11.98659,0,0,1,3.558-8.521c39.614-39.144,56.648-80.587,89.117-113.111,14.804-14.832,20.188-37.236,25.393-58.902C399.515,189.293,408.817,150,429,150c24,0,72,8,72,81.452,0,42.416-25.97,66.208-33.277,94.548H569.446c33.397,0,59.397,27.746,59.553,58.098.084,17.938-7.546,37.249-19.439,49.197l-.11.11c9.836,23.337,8.237,56.037-9.308,79.469,8.681,25.895-.069,57.704-16.382,74.757a70.02858,70.02858,0,0,1,2.15625,18.67627" transform="translate(2 -4)"/><circle class="cls-2" cx="352" cy="352" r="337"/><path class="cls-3" d="M280,603c0,8.83656-8.50659,16-19,16s-19-7.16344-19-16" transform="translate(2 -4)"/><path class="cls-3" d="M280,609c0,8.83656-8.50659,16-19,16s-19-7.16344-19-16" transform="translate(2 -4)"/><text class="cls-4" transform="translate(750.16992 454.55078)">G<tspan class="cls-5" x="193.79883" y="0">r</tspan><tspan x="288.89941" y="0">ee</tspan><tspan class="cls-6" x="589.49512" y="0">n</tspan><tspan class="cls-7" x="740.99609" y="0">T</tspan><tspan x="887.99902" y="0">humb</tspan><tspan class="cls-8"><tspan x="0" y="145.2002">landscaping</tspan></tspan></text><rect class="cls-9" x="282" y="599" width="169" height="75"/><rect class="cls-9" x="228" y="618" width="174" height="56"/></svg>